<?xml version="1.0" encoding="utf-8"?>
<!DOCTYPE svg PUBLIC "-//W3C//DTD SVG 1.1//EN" "http://www.w3.org/Graphics/SVG/1.1/DTD/svg11.dtd">
<svg version="1.1" xmlns="http://www.w3.org/2000/svg" xmlns:xlink="http://www.w3.org/1999/xlink" x="0px" y="0px" viewBox="0 0 1000 1000" enable-background="new 0 0 1000 1000" xml:space="preserve">
<g><path style="fill:#ffffff" d="M242,737.1c0,33.1,26.2,60.1,58.4,60.1h42.1c-1.4,5-2.2,10.3-2.2,15.8v120.1c0,31.4,24.8,56.9,55.3,56.9c30.5,0,55.3-25.5,55.3-56.9V813c0-5.5-0.8-10.8-2.2-15.8h102.7c-1.4,5-2.2,10.3-2.2,15.8v120.1c0,31.4,24.8,56.9,55.3,56.9s55.3-25.5,55.3-56.9V813c0-5.5-0.8-10.8-2.2-15.8h42.1c32.2,0,58.4-27,58.4-60.1V319.8H242L242,737.1L242,737.1z M149.9,319.8c-30.5,0-55.3,25.5-55.3,56.9v243.4c0,31.4,24.8,56.9,55.3,56.9c30.5,0,55.3-25.5,55.3-56.9V376.7C205.2,345.3,180.4,319.8,149.9,319.8z M850.2,319.8c-30.5,0-55.3,25.5-55.3,56.9v243.4c0,31.4,24.7,56.9,55.3,56.9c30.5,0,55.3-25.5,55.3-56.9V376.7C905.4,345.3,880.7,319.8,850.2,319.8z M626.9,92.1l10.4-16l10.2-15.8l23-35.5c2.8-4.4,1.7-10.2-2.5-13.1c-4.3-2.9-10-1.7-12.8,2.6l-24.6,38l-10.4,16l-10.5,16.2C576.3,71.2,539.2,63.7,500,63.7c-39.2,0-76.3,7.5-109.6,20.7l-10.5-16.2l-10.3-16l-24.7-38c-2.8-4.4-8.5-5.5-12.8-2.6c-4.2,2.9-5.4,8.8-2.5,13.1l23,35.5L362.8,76l10.4,16C294.9,129.5,242,200.6,242,281.9h516C758,200.6,705.1,129.6,626.9,92.1z M389.5,206c-15.3,0-27.6-12.8-27.6-28.5s12.4-28.4,27.6-28.4c15.3,0,27.6,12.7,27.6,28.4S404.7,206,389.5,206z M610.6,206c-15.3,0-27.6-12.8-27.6-28.5s12.4-28.4,27.6-28.4c15.3,0,27.6,12.7,27.6,28.4S625.9,206,610.6,206z"/></g>
</svg>