<?xml version="1.0" encoding="utf-8"?>
<svg version="1.1" id="statrix_logo_horizontal" xmlns="http://www.w3.org/2000/svg" xmlns:xlink="http://www.w3.org/1999/xlink" x="0px" y="0px"
	 viewBox="0 0 400 136.096" xml:space="preserve">
<style type="text/css">
	.st0{fill-rule:evenodd;clip-rule:evenodd;fill:#527FC1;}
	.st1{fill-rule:evenodd;clip-rule:evenodd;fill:#1E1E1E;}
	.st2{fill:#1E1E1E;}
</style>
<g>
	<path class="st0" d="M127.274,88.49c2.066-6.541,3.147-13.366,3.147-20.443c0-37.448-30.249-67.826-67.645-68.044
		c4.134,5.615,7.23,12.039,9.006,18.991c17.937,7.74,42.466,31.313,30.879,68.764C107.876,89.612,114.869,91.901,127.274,88.49"/>
	<path class="st0" d="M69.207,54.043c7.396,8.47,18.965,26.988,10.128,57.08c8.776-6.187,12.1-12.152,15.649-18.094
		c7.398-30.345-10.277-52.975-21.538-58.127C73.178,41.667,71.697,48.118,69.207,54.043"/>
	<path class="st0" d="M53.006,75.593c3.486,10.913,5.421,29.881-2.491,44.459c7.408-0.164,14.962-1.513,21.86-4.842
		c8.272-28.547-2.836-45.439-9.266-50.301C60.229,68.905,56.828,72.498,53.006,75.593"/>
	<path class="st1" d="M-0.003,95.295c1.023,0.148,1.569,0.186,2.99,0.876c26.258,44.042,81.845,31.269,96.813-1.697
		c8.626,3.073,21.514,2.992,24.607,1.58c-10.769,23.676-34.492,40.042-62.036,40.042C34.48,136.096,10.508,119.315-0.003,95.295"/>
	<g>
		<path class="st2" d="M178.543,79.91c3.33,2.04,6.16,3.47,8.488,4.289c2.325,0.822,4.592,1.231,6.808,1.231
			c2.237,0,4.035-0.49,5.391-1.472c1.355-0.982,2.032-2.244,2.032-3.786c0-2.213-2.413-4.701-7.236-7.461
			c-0.772-0.448-1.368-0.798-1.791-1.047l-3.657-2.05c-3.558-2.016-6.194-4.292-7.91-6.829s-2.573-5.409-2.573-8.617
			c0-4.351,1.641-7.923,4.924-10.709c3.284-2.783,7.523-4.178,12.722-4.178c1.915,0,3.991,0.225,6.23,0.671
			c2.239,0.448,4.725,1.146,7.461,2.089v12.686c-2.612-1.643-5.087-2.91-7.425-3.805c-2.338-0.897-4.328-1.345-5.969-1.345
			c-1.817,0-3.245,0.391-4.289,1.177c-1.047,0.783-1.568,1.845-1.568,3.19c0,0.943,0.311,1.827,0.933,2.649
			c0.622,0.819,1.552,1.565,2.796,2.237l6.344,3.509c5.297,2.934,8.861,5.645,10.688,8.133c1.827,2.488,2.742,5.435,2.742,8.843
			c0,5.271-1.796,9.532-5.391,12.777c-3.595,3.245-8.363,4.87-14.308,4.87c-2.014,0-4.204-0.213-6.565-0.635
			c-2.364-0.422-4.963-1.083-7.798-1.977L178.543,79.91z"/>
		<path class="st2" d="M223.386,83.901V70.432h-4.888v-8.84h4.888V51.518l11.937-1.604v11.678h7.949v8.84h-7.949v14.29
			c0,3.035,0.412,5.23,1.231,6.585c0.822,1.355,2.364,2.605,4.626,3.747l-13.279,0.897c-1.666-0.796-2.835-1.983-3.509-3.563
			C223.72,90.81,223.386,87.98,223.386,83.901z"/>
		<path class="st2" d="M281.848,61.592v21.003c0,2.638,0.049,4.852,0.148,6.642c0.101,1.791,0.249,3.32,0.448,4.587l-10.856,2.986
			l-1.044-3.208c-1.467,1.094-2.905,1.902-4.31,2.426c-1.405,0.521-2.879,0.783-4.421,0.783c-4.325,0-7.964-1.729-10.911-5.186
			c-2.947-3.457-4.421-7.759-4.421-12.909c0-5.422,1.653-9.897,4.96-13.43c3.31-3.532,7.487-5.297,12.536-5.297
			c1.169,0,2.389,0.161,3.657,0.485c1.27,0.324,2.675,0.819,4.217,1.493L281.848,61.592z M270.134,70.134
			c-0.697-0.397-1.363-0.684-1.998-0.858c-0.632-0.174-1.262-0.262-1.882-0.262c-2.216,0-4.082,0.928-5.598,2.781
			s-2.275,4.185-2.275,6.995c0,2.636,0.666,4.831,1.996,6.585c1.332,1.752,2.954,2.631,4.87,2.631c0.77,0,1.56-0.207,2.369-0.617
			c0.809-0.409,1.648-1.037,2.519-1.884V70.134z"/>
		<path class="st2" d="M292.704,83.901V70.432h-4.888v-8.84h4.888V51.518l11.937-1.604v11.678h7.949v8.84h-7.949v14.29
			c0,3.035,0.412,5.23,1.231,6.585c0.822,1.355,2.364,2.605,4.626,3.747l-13.279,0.897c-1.666-0.796-2.835-1.983-3.509-3.563
			C293.038,90.81,292.704,87.98,292.704,83.901z"/>
		<path class="st2" d="M329.601,95.205h-11.75V61.592h10.931l0.223,5.893c1.342-2.361,2.916-4.079,4.719-5.147
			c1.804-1.07,4.048-1.604,6.733-1.604h0.933v12.533h-1.231h-1.306c-3.654,0-6.111,0.417-7.368,1.252
			c-1.257,0.832-1.884,2.84-1.884,6.026V95.205z"/>
		<path class="st2" d="M346.727,49.056c0-1.791,0.619-3.307,1.863-4.551c1.244-1.244,2.763-1.866,4.553-1.866
			c1.814,0,3.338,0.614,4.569,1.845c1.231,1.231,1.848,2.755,1.848,4.572c0,1.791-0.622,3.32-1.866,4.587
			c-1.244,1.27-2.76,1.905-4.551,1.905c-1.742,0-3.247-0.64-4.515-1.923C347.359,52.345,346.727,50.821,346.727,49.056z
			 M359.112,95.205h-11.828V61.592l11.828-1.604V95.205z"/>
		<path class="st2" d="M361.797,95.205l12.834-16.566L362.58,61.592h13.655l5.595,7.871l6.083-7.871h11.489l-12.087,15.744
			L400,95.205h-13.767l-6.083-8.692l-6.751,8.692H361.797z"/>
	</g>
</g>
</svg>
