<?xml version="1.0" encoding="utf-8"?>
<svg version="1.1" id="statrix_logo_vertical" xmlns="http://www.w3.org/2000/svg" xmlns:xlink="http://www.w3.org/1999/xlink" x="0px" y="0px"
	 viewBox="0 0 330.743 400" xml:space="preserve">
<style type="text/css">
	.st0{fill:#1E1E1E;}
	.st1{fill-rule:evenodd;clip-rule:evenodd;fill:#527FC1;}
	.st2{fill-rule:evenodd;clip-rule:evenodd;fill:#1E1E1E;}
</style>
<g>
	<g>
		<path class="st0" d="M0.668,374.446c4.964,3.04,9.182,5.17,12.65,6.395c3.465,1.223,6.845,1.835,10.147,1.835
			c3.334,0,6.014-0.732,8.034-2.196s3.028-3.345,3.028-5.645c0-3.299-3.596-7.005-10.785-11.121
			c-1.151-0.666-2.04-1.186-2.669-1.557l-5.45-3.059c-5.304-3.001-9.232-6.395-11.789-10.174C1.279,345.142,0,340.86,0,336.078
			c0-6.487,2.445-11.806,7.339-15.959c4.894-4.152,11.214-6.229,18.962-6.229c2.855,0,5.949,0.334,9.286,1.002
			c3.337,0.666,7.042,1.705,11.121,3.113v18.906c-3.894-2.447-7.583-4.338-11.067-5.672c-3.484-1.335-6.451-2.001-8.896-2.001
			c-2.708,0-4.836,0.583-6.393,1.752c-1.561,1.167-2.337,2.752-2.337,4.753c0,1.41,0.464,2.725,1.391,3.948
			c0.927,1.224,2.314,2.337,4.168,3.337l9.456,5.226c7.895,4.375,13.207,8.415,15.93,12.123c2.723,3.706,4.087,8.1,4.087,13.178
			c0,7.859-2.677,14.207-8.034,19.045s-12.465,7.256-21.326,7.256c-3.001,0-6.265-0.315-9.784-0.944
			c-3.523-0.632-7.397-1.613-11.623-2.947L0.668,374.446z"/>
		<path class="st0" d="M67.505,380.395v-20.073H60.22v-13.18h7.285V332.13l17.792-2.391v17.404h11.847v13.18H85.297v21.297
			c0,4.523,0.614,7.793,1.835,9.813c1.224,2.022,3.523,3.884,6.895,5.589l-19.793,1.335c-2.484-1.186-4.226-2.957-5.23-5.311
			C68.004,390.693,67.505,386.475,67.505,380.395z"/>
		<path class="st0" d="M154.641,347.142v31.307c0,3.928,0.073,7.227,0.22,9.896c0.151,2.669,0.371,4.95,0.668,6.841l-16.181,4.448
			l-1.557-4.782c-2.186,1.632-4.33,2.835-6.424,3.614c-2.094,0.778-4.291,1.168-6.59,1.168c-6.447,0-11.87-2.576-16.262-7.729
			c-4.392-5.153-6.59-11.565-6.59-19.24c0-8.081,2.464-14.754,7.393-20.017c4.933-5.265,11.159-7.897,18.684-7.897
			c1.742,0,3.561,0.241,5.45,0.724c1.893,0.481,3.986,1.223,6.285,2.223L154.641,347.142z M137.181,359.876
			c-1.039-0.591-2.032-1.018-2.978-1.279c-0.943-0.259-1.881-0.388-2.804-0.388c-3.303,0-6.084,1.381-8.344,4.143
			s-3.391,6.236-3.391,10.426c0,3.93,0.993,7.2,2.974,9.815c1.985,2.613,4.404,3.919,7.258,3.919c1.147,0,2.325-0.305,3.531-0.917
			c1.205-0.61,2.457-1.547,3.755-2.808V359.876z"/>
		<path class="st0" d="M170.822,380.395v-20.073h-7.285v-13.18h7.285V332.13l17.792-2.391v17.404h11.847v13.18h-11.847v21.297
			c0,4.523,0.614,7.793,1.835,9.813c1.224,2.022,3.523,3.884,6.895,5.589l-19.793,1.335c-2.484-1.186-4.226-2.957-5.23-5.311
			C171.32,390.693,170.822,386.475,170.822,380.395z"/>
		<path class="st0" d="M225.816,397.244h-17.514v-50.102h16.293l0.332,8.786c2.001-3.521,4.346-6.078,7.034-7.673
			c2.688-1.593,6.034-2.391,10.035-2.391h1.391v18.684h-1.835h-1.947c-5.446,0-9.108,0.622-10.982,1.862
			c-1.873,1.244-2.808,4.236-2.808,8.981V397.244z"/>
		<path class="st0" d="M251.341,328.46c0-2.669,0.923-4.931,2.777-6.785c1.854-1.854,4.118-2.781,6.787-2.781
			c2.704,0,4.975,0.919,6.81,2.754c1.835,1.835,2.754,4.106,2.754,6.812c0,2.669-0.927,4.948-2.781,6.839
			c-1.854,1.891-4.114,2.835-6.783,2.835c-2.596,0-4.84-0.954-6.729-2.864C252.283,333.362,251.341,331.093,251.341,328.46z
			 M269.801,397.244h-17.63v-50.102l17.63-2.391V397.244z"/>
		<path class="st0" d="M273.803,397.244l19.128-24.689l-17.962-25.413h20.353l8.34,11.733l9.066-11.733h17.124l-18.016,23.466
			l18.908,26.636h-20.519l-9.066-12.956l-10.062,12.956H273.803z"/>
	</g>
	<path class="st1" d="M289.389,176.808c4.129-13.069,6.288-26.706,6.288-40.846c0-74.824-60.441-135.523-135.162-135.958
		c8.259,11.218,14.446,24.054,17.995,37.946c35.841,15.465,84.853,62.566,61.7,137.397
		C250.63,179.051,264.604,183.625,289.389,176.808"/>
	<path class="st1" d="M173.367,107.98c14.778,16.923,37.893,53.925,20.237,114.05c17.535-12.361,24.177-24.28,31.269-36.152
		c14.781-60.633-20.536-105.849-43.036-116.143C181.302,83.25,178.343,96.141,173.367,107.98"/>
	<path class="st1" d="M140.996,151.039c6.965,21.806,10.832,59.706-4.977,88.834c14.804-0.327,29.896-3.023,43.68-9.675
		c16.528-57.041-5.667-90.791-18.516-100.507C155.428,137.674,148.633,144.856,140.996,151.039"/>
	<path class="st2" d="M35.079,190.405c2.044,0.296,3.135,0.372,5.974,1.75c52.466,88.001,163.535,62.479,193.442-3.389
		c17.235,6.14,42.986,5.978,49.168,3.156c-21.519,47.308-68.919,80.008-123.954,80.008
		C103.98,271.929,56.079,238.401,35.079,190.405"/>
</g>
</svg>
